<?xml version="1.0"?>
<svg width="499.996" height="499.996" xmlns="http://www.w3.org/2000/svg" xmlns:svg="http://www.w3.org/2000/svg" version="1.1" xml:space="preserve">
 <g class="layer">
  <title>Layer 1</title>
  <g id="svg_1">
   <g id="svg_2">
    <path d="m427.56,46.59l-75.4,0c-3.44,-15.63 -17.53,-27.36 -34.36,-27.36l-37.38,0c-4.76,-11.73 -15.98,-19.23 -28.75,-19.23s-24,7.5 -28.76,19.23l-37.85,0c-16.82,0 -30.91,11.73 -34.35,27.36l-74.93,0c-19.4,0 -36.85,16.27 -36.85,35.67l0,382.4c0,19.4 17.45,35.34 36.85,35.34l351.78,0c19.4,0 33.51,-15.94 33.51,-35.34l0,-382.4c0,-19.4 -14.11,-35.67 -33.51,-35.67zm-175.89,-30.95c8.62,0 15.63,7.02 15.63,15.64s-7.01,15.64 -15.63,15.64c-8.63,0 -15.64,-7.02 -15.64,-15.64s7.01,-15.64 15.64,-15.64zm-169.75,449.18l0,-390.87l66.45,0l0,12.71c0,2.16 3.26,2.93 5.42,2.93l195.28,0c2.16,0 2.55,-0.77 2.55,-2.93l0,-12.71l66.45,0l0,390.87l-336.15,0z" id="svg_3"/>
   </g>
  </g>
  <g id="svg_4">
   <g id="svg_5">
    <path d="m381.06,183.4l-156.68,0c-4.31,0 -7.81,3.49 -7.81,7.81s3.5,7.82 7.81,7.82l156.68,0c4.31,0 7.82,-3.5 7.82,-7.82c0,-4.31 -3.51,-7.81 -7.82,-7.81z" id="svg_6"/>
   </g>
  </g>
  <g id="svg_19">
   <g id="svg_20">
    <path d="m381.06,308.47l-156.68,0c-4.31,0 -7.81,3.5 -7.81,7.82c0,4.32 3.5,7.82 7.81,7.82l156.68,0c4.31,0 7.82,-3.5 7.82,-7.82c0,-4.32 -3.51,-7.82 -7.82,-7.82z" id="svg_21"/>
   </g>
  </g>
  <g id="svg_22" transform="matrix(1 0 0 1 0 0)">
   <g id="svg_23">
    <path d="m194.62,161.67c-3.06,-3.05 -8,-3.05 -11.06,0l-29.84,29.84l-13.8,-13.79c-3.05,-3.06 -8,-3.06 -11.05,0c-3.05,3.05 -3.05,8 0,11.05l19.33,19.33c1.52,1.52 3.52,2.29 5.52,2.29c2,0 4,-0.77 5.53,-2.29l35.37,-35.37c3.05,-3.06 3.05,-8 0,-11.06z" id="svg_24"/>
   </g>
  </g>
  <g id="svg_25">
   <g id="svg_26">
    <path d="m194.62,224c-3.06,-3.05 -8,-3.05 -11.06,0l-29.84,29.84l-13.8,-13.8c-3.05,-3.05 -8,-3.05 -11.05,0c-3.05,3.06 -3.05,8 0,11.06l19.33,19.32c1.52,1.53 3.52,2.29 5.52,2.29c2,0 4,-0.76 5.53,-2.29l35.37,-35.36c3.05,-3.06 3.05,-8.01 0,-11.06z" id="svg_27"/>
   </g>
  </g>
  <g id="svg_28">
   <g id="svg_29">
    <path d="m194.62,286.46c-3.06,-3.05 -8,-3.05 -11.06,0l-29.84,29.84l-13.8,-13.79c-3.05,-3.06 -8,-3.06 -11.05,0c-3.05,3.05 -3.05,8 0,11.05l19.33,19.33c1.52,1.52 3.52,2.29 5.52,2.29c2,0 4,-0.76 5.53,-2.29l35.37,-35.37c3.05,-3.06 3.05,-8 0,-11.06z" id="svg_30"/>
   </g>
  </g>
  <g id="svg_31">
   <g id="svg_32">
    <path d="m194.62,349.06c-3.06,-3.05 -8,-3.05 -11.06,0l-29.84,29.84l-13.8,-13.79c-3.05,-3.05 -8,-3.05 -11.05,0c-3.05,3.05 -3.05,8 0,11.05l19.33,19.33c1.52,1.53 3.52,2.29 5.52,2.29c2,0 4,-0.76 5.53,-2.29l35.37,-35.37c3.05,-3.06 3.05,-8 0,-11.06z" id="svg_33"/>
   </g>
  </g>
  <g id="svg_34" transform="matrix(1 0 0 1 0 0) translate(-1 0) translate(1 0) translate(1 0) translate(1 0) translate(1 0) translate(1 0) translate(1 0) translate(1 0) translate(1 0) translate(1 0) translate(1 0) translate(1 0) translate(1 0) translate(1 0) translate(1 0) translate(1 0) translate(1 0) translate(1 0) translate(1 0) translate(1 0) translate(1 0) translate(1 0) translate(1 0) translate(1 0) translate(1 0) translate(1 0) translate(1 0) translate(1 0) translate(1 0) translate(1 0) translate(1 0) translate(1 0) translate(1 0) translate(1 0) translate(1 0) translate(1 0) translate(1 0) translate(1 0) translate(1 0) translate(1 0) translate(1 0) translate(1 0) translate(1 0) translate(1 0) translate(1 0) translate(1 0) translate(1 0) translate(1 0) translate(1 0) translate(1 0) translate(1 0) translate(1 0) translate(1 0) translate(1 0) translate(-53.721 -66.786)">
   <g id="svg_35">
    <path d="m381.06,308.47l-156.68,0c-4.31,0 -7.81,3.5 -7.81,7.82c0,4.32 3.5,7.82 7.81,7.82l156.68,0c4.31,0 7.82,-3.5 7.82,-7.82c0,-4.32 -3.51,-7.82 -7.82,-7.82z" id="svg_36"/>
   </g>
  </g>
  <g id="svg_37" transform="translate(0 1) translate(0 1) translate(0 1) translate(0 1) translate(0 1) translate(0 1) translate(0 1) translate(0 1) translate(0 1) translate(0 1) translate(0 1) translate(0 1) translate(0 1) translate(0 1) translate(0 1) translate(0 1) translate(0 1) translate(0 1) translate(0 1) translate(0 1) translate(0 1) translate(0 1) translate(0 1) translate(0 1) translate(0 1) translate(0 1) translate(0 1) translate(0 1) translate(0 1) translate(0 1) translate(0 1) translate(0 1) translate(0 1) translate(0 1) translate(0 1) translate(0 1) translate(0 1) translate(0 1) translate(0 1) translate(0 1) translate(0 1) translate(0 1) translate(0 1) translate(0 1) translate(0 1) translate(0 1) translate(0 1) translate(0 1) translate(0 1) translate(0 1) translate(0 1) translate(0 1) translate(0 1) translate(0 1) translate(0 1) translate(0 1) translate(0 1) translate(0 1) translate(0 1) translate(0 1) translate(0 1) translate(0 1) translate(0 1) translate(0 1) translate(0 1) translate(0 1) translate(0 1) translate(0 1) translate(0 1) translate(0 1) translate(0 1) translate(0 1) translate(0 1) translate(0 1) translate(0 1) translate(1 0) translate(1 0) translate(1 0) translate(1 0) translate(1 0) translate(1 0) translate(1 0) translate(1 0) translate(1 0) translate(1 0) translate(1 0) translate(1 0) translate(1 0) translate(1 0) translate(1 0) translate(1 0) translate(1 0) translate(1 0) translate(1 0) translate(1 0) translate(1 0) translate(1 0) translate(1 0) translate(1 0) translate(1 0) translate(1 0) translate(1 0) translate(1 0) translate(1 0) translate(1 0) translate(1 0) translate(1 0) translate(1 0) translate(1 0) translate(1 0) translate(1 0) translate(1 0) translate(1 0) translate(1 0) translate(1 0) translate(1 0) translate(1 0) translate(1 0) translate(1 0) translate(1 0) translate(1 0) translate(1 0) translate(1 0) translate(1 0) translate(1 0) translate(1 0) translate(1 0) translate(1 0) translate(1 0) translate(0 1) translate(0 1) translate(0 1) translate(0 1) translate(0 1) translate(0 1) translate(0 1) translate(0 1) translate(0 1) translate(0 1) translate(0 1) translate(0 1) translate(0 1) translate(0 1) translate(0 1) translate(0 1) translate(0 1) translate(0 1) translate(0 1) translate(0 1) translate(0 1) translate(0 1) translate(0 1) translate(0 1) translate(0 1) translate(0 1) translate(0 1) translate(0 1) translate(0 1) translate(0 1) translate(0 1) translate(0 1) translate(0 1) translate(0 1) translate(0 1) translate(0 1) translate(0 1) translate(0 1) translate(0 1) translate(0 1) translate(0 1) translate(0 1) translate(0 1) translate(0 1) translate(0 1) translate(0 1) translate(0 1) translate(0 1) translate(0 1) translate(0 1) translate(0 1) translate(0 1) translate(0 1) translate(0 1) translate(0 1) translate(0 1) translate(0 1) translate(0 1) translate(-53.721 -66.786)">
   <g id="svg_38">
    <path d="m381.06,308.47l-156.68,0c-4.31,0 -7.81,3.5 -7.81,7.82c0,4.32 3.5,7.82 7.81,7.82l156.68,0c4.31,0 7.82,-3.5 7.82,-7.82c0,-4.32 -3.51,-7.82 -7.82,-7.82z" id="svg_39"/>
   </g>
  </g>
 </g>
</svg>